{"title":"Pressed.2011.DVDRip.XviD-OCW","uid":6892567,"size":1608985608,"categoryP":"video","categoryS":"movies","magnet":"?xt=urn:btih:8386a3408022afd08222fca682334fc2b996bd63&amp;dn=Pressed.2011.DVDRip.XviD-OCW&amp;tr=udp%3A%2F%2Ftracker.openbittorrent.com%3A80&amp;tr=udp%3A%2F%2Fopen.demonii.com%3A1337&amp;tr=udp%3A%2F%2Ftracker.coppersurfer.tk%3A6969&amp;tr=udp%3A%2F%2Fexodus.desync.com%3A6969","seeders":0,"leechers":0,"uploader":"TvTeam","files":4,"time":1324070038,"description":". \n &lt;a href=&quot;\nhttp://www.torrenting.com&quot; rel=&quot;nofollow&quot; target=&quot;_NEW&quot;&gt;\nhttp://www.torrenting.com&lt;/a&gt;          :     Once &amp; For all ;)\n\n\n               www . Torrenting . Com \n\n(((((((((((((= Enjoy No RAR releases =))))))))))))))))))))\n\n\n...................................NFO:....................................\n\n.http://www.imdb.com/title/tt1716759/\n\nGeneral\nComplete name                    : Pressed.2011.DVDRip.XviD-OCW.avi\nFormat                           : AVI\nFormat/Info                      : Audio Video Interleave\nFile size                        : 1.50 GiB\nDuration                         : 1h 45mn\nOverall bit rate                 : 2 038 Kbps\nWriting library                  : MPlayer\n\nVideo\nID                               : 0\nFormat                           : MPEG-4 Visual\nFormat profile                   : Advanced Simple@L5\nFormat settings, BVOP            : 2\nFormat settings, QPel            : No\nFormat settings, GMC             : No warppoints\nFormat settings, Matrix          : Default (H.263)\nCodec ID                         : XVID\nCodec ID/Hint                    : XviD\nDuration                         : 1h 45mn\nBit rate                         : 1 777 Kbps\nWidth                            : 720 pixels\nHeight                           : 400 pixels\nDisplay aspect ratio             : 16:9\nFrame rate                       : 29.970 fps\nColor space                      : YUV\nChroma subsampling               : 4:2:0\nBit depth                        : 8 bits\nScan type                        : Progressive\nCompression mode                 : Lossy\nBits/(Pixel*Frame)               : 0.206\nStream size                      : 1.31 GiB (87%)\nWriting library                  : XviD 63\n\nAudio\nID                               : 1\nFormat                           : MPEG Audio\nFormat version                   : Version 1\nFormat profile                   : Layer 3\nMode                             : Joint stereo\nMode extension                   : MS Stereo\nCodec ID                         : 55\nCodec ID/Hint                    : MP3\nDuration                         : 1h 45mn\nBit rate mode                    : Constant\nBit rate                         : 256 Kbps\nChannel(s)                       : 2 channels\nSampling rate                    : 44.1 KHz\nCompression mode                 : Lossy\nDelay relative to video          : 33ms\nStream size                      : 192 MiB (13%)\nAlignment                        : Split accross interleaves\nInterleave, duration             : 501 ms (15.01 video frames)\nInterleave, preload duration     : 500 ms\nWriting library                  : LAME3.98.4","torrent":{"xt":"urn:btih:8386a3408022afd08222fca682334fc2b996bd63","amp;dn":"Pressed.2011.DVDRip.XviD-OCW","amp;tr":["udp%3A%2F%2Ftracker.openbittorrent.com%3A80","udp%3A%2F%2Fopen.demonii.com%3A1337","udp%3A%2F%2Ftracker.coppersurfer.tk%3A6969","udp%3A%2F%2Fexodus.desync.com%3A6969"],"infoHash":"8386a3408022afd08222fca682334fc2b996bd63","infoHashBuffer":{"type":"Buffer","data":[131,134,163,64,128,34,175,208,130,34,252,166,130,51,79,194,185,150,189,99]},"announce":[],"urlList":[]}}